<svg width="1600" height="900" viewBox="0 0 1600 900" fill="none" xmlns="http://www.w3.org/2000/svg">
  <rect width="1600" height="900" fill="#F8FAFC"/>
  <g opacity="0.9">
    <rect x="120" y="96" width="1360" height="708" rx="18" fill="#FFFFFF" stroke="#E2E8F0" stroke-width="2"/>
    <rect x="160" y="136" width="420" height="10" fill="#0F172A"/>
    <rect x="160" y="164" width="280" height="8" fill="#64748B"/>
    <rect x="160" y="188" width="340" height="8" fill="#64748B"/>
  </g>

  <!-- simple org-chart blocks -->
  <g>
    <rect x="640" y="220" width="320" height="78" rx="12" fill="#0F172A"/>
    <rect x="680" y="246" width="240" height="10" fill="#FFFFFF"/>
    <rect x="720" y="266" width="160" height="8" fill="#F1F5F9"/>

    <path d="M800 298V352" stroke="#CBD5E1" stroke-width="4" stroke-linecap="round"/>
    <path d="M560 352H1040" stroke="#CBD5E1" stroke-width="4" stroke-linecap="round"/>
    <path d="M560 352V388" stroke="#CBD5E1" stroke-width="4" stroke-linecap="round"/>
    <path d="M800 352V388" stroke="#CBD5E1" stroke-width="4" stroke-linecap="round"/>
    <path d="M1040 352V388" stroke="#CBD5E1" stroke-width="4" stroke-linecap="round"/>

    <rect x="420" y="388" width="280" height="74" rx="12" fill="#FFFFFF" stroke="#E2E8F0" stroke-width="2"/>
    <rect x="452" y="412" width="200" height="10" fill="#0F172A"/>
    <rect x="452" y="434" width="140" height="8" fill="#64748B"/>

    <rect x="660" y="388" width="280" height="74" rx="12" fill="#FFFFFF" stroke="#E2E8F0" stroke-width="2"/>
    <rect x="692" y="412" width="200" height="10" fill="#0F172A"/>
    <rect x="692" y="434" width="140" height="8" fill="#64748B"/>

    <rect x="900" y="388" width="280" height="74" rx="12" fill="#FFFFFF" stroke="#E2E8F0" stroke-width="2"/>
    <rect x="932" y="412" width="200" height="10" fill="#0F172A"/>
    <rect x="932" y="434" width="140" height="8" fill="#64748B"/>

    <path d="M560 462V516" stroke="#CBD5E1" stroke-width="4" stroke-linecap="round"/>
    <path d="M800 462V516" stroke="#CBD5E1" stroke-width="4" stroke-linecap="round"/>
    <path d="M1040 462V516" stroke="#CBD5E1" stroke-width="4" stroke-linecap="round"/>

    <rect x="340" y="516" width="220" height="66" rx="12" fill="#FFF7ED" stroke="#FDBA74" stroke-width="2"/>
    <rect x="368" y="538" width="164" height="10" fill="#9A3412"/>
    <rect x="368" y="558" width="110" height="8" fill="#C2410C"/>

    <rect x="580" y="516" width="220" height="66" rx="12" fill="#FFF7ED" stroke="#FDBA74" stroke-width="2"/>
    <rect x="608" y="538" width="164" height="10" fill="#9A3412"/>
    <rect x="608" y="558" width="110" height="8" fill="#C2410C"/>

    <rect x="820" y="516" width="220" height="66" rx="12" fill="#FFF7ED" stroke="#FDBA74" stroke-width="2"/>
    <rect x="848" y="538" width="164" height="10" fill="#9A3412"/>
    <rect x="848" y="558" width="110" height="8" fill="#C2410C"/>

    <rect x="1060" y="516" width="220" height="66" rx="12" fill="#FFF7ED" stroke="#FDBA74" stroke-width="2"/>
    <rect x="1088" y="538" width="164" height="10" fill="#9A3412"/>
    <rect x="1088" y="558" width="110" height="8" fill="#C2410C"/>
  </g>

  <text x="160" y="760" fill="#64748B" font-size="14" font-family="ui-monospace, SFMono-Regular, Menlo, Monaco, Consolas, 'Liberation Mono', 'Courier New', monospace" letter-spacing="2">
    TEMPAT GAMBAR STRUKTUR KEPENGURUSAN (GANTI DENGAN FILE RESMI)
  </text>
</svg>
